<?xml version="1.0" standalone="no"?><!DOCTYPE svg PUBLIC "-//W3C//DTD SVG 1.1//EN" "http://www.w3.org/Graphics/SVG/1.1/DTD/svg11.dtd"><svg t="1589786984868" class="icon" viewBox="0 0 1024 1024" version="1.1" xmlns="http://www.w3.org/2000/svg" p-id="18944" xmlns:xlink="http://www.w3.org/1999/xlink" width="200" height="200"><defs><style type="text/css"></style></defs><path d="M515.1499999999999 596.15l-26.55-26.55-20.7-20.7c-6.749999999999999-6.749999999999999-11.25-11.7-13.95-14.85-5.3999999999999995-4.5-12.149999999999999-8.549999999999999-20.7-11.25-8.549999999999999-3.15-15.75-1.3499999999999999-21.599999999999998 5.3999999999999995-5.3999999999999995 7.199999999999999-6.749999999999999 14.399999999999999-4.05 21.15s5.3999999999999995 12.149999999999999 9 16.2l14.85 13.95c7.199999999999999 8.1 15.3 16.65 23.849999999999998 25.65 9.899999999999999 10.35 20.7 21.599999999999998 32.4 33.75l-0.8999999999999999 20.7h-67.05c-5.85 0-10.799999999999999 2.25-15.3 6.749999999999999-4.05 4.5-6.3 9.45-6.3 14.85 0 5.3999999999999995 1.7999999999999998 9.899999999999999 5.85 13.95s9 5.85 15.75 5.85h67.05v34.65h-67.05c-5.85 0-10.799999999999999 1.7999999999999998-15.3 5.3999999999999995-4.05 3.5999999999999996-6.3 8.549999999999999-6.3 14.399999999999999-0.44999999999999996 5.3999999999999995 1.3499999999999999 9.899999999999999 5.3999999999999995 13.499999999999998 4.05 3.5999999999999996 9.899999999999999 5.3999999999999995 16.2 5.3999999999999995h67.05v19.799999999999997c0.44999999999999996 9 3.5999999999999996 15.75 9 19.349999999999998 5.3999999999999995 3.5999999999999996 11.7 5.3999999999999995 19.799999999999997 5.3999999999999995 8.1 0.44999999999999996 14.399999999999999-1.7999999999999998 19.349999999999998-7.199999999999999 4.949999999999999-5.3999999999999995 7.199999999999999-11.25 7.199999999999999-17.099999999999998v-19.799999999999997H611c6.749999999999999 0 12.149999999999999-1.3499999999999999 16.2-4.5 4.5-3.15 6.3-7.65 5.3999999999999995-14.399999999999999 0-13.95-9-20.7-27.450000000000003-20.7h-63l0.8999999999999999-33.75 64.35-0.8999999999999999c9 0.44999999999999996 15.75-1.3499999999999999 19.799999999999997-5.3999999999999995 4.05-4.05 5.85-9.45 5.85-15.3 0-5.3999999999999995-2.25-9.899999999999999-6.3-14.399999999999999-4.05-4.05-10.799999999999999-6.3-20.249999999999996-6.3h-64.35v-18.9c11.25-10.35 21.15-20.7 30.6-30.6 8.1-8.1 15.75-15.75 23.849999999999998-24.299999999999997 8.1-8.1 13.95-13.95 17.549999999999997-17.099999999999998 15.3-13.05 18.45-24.75 9.899999999999999-34.65-4.5-5.85-10.35-9-17.549999999999997-9s-13.95 2.6999999999999997-19.799999999999997 8.1c-3.15 2.6999999999999997-9 7.199999999999999-16.65 14.399999999999999-8.1 6.749999999999999-15.75 13.95-23.849999999999998 21.15-9.45 8.1-19.799999999999997 17.549999999999997-31.050000000000004 27.9zM620 293.3c8.1 10.35 17.549999999999997 22.05 29.7 34.65 9.899999999999999 11.25 22.05 23.849999999999998 36.45 37.8 14.399999999999999 13.95 31.050000000000004 29.250000000000004 50.4 45 15.75 13.95 31.95 30.150000000000002 49.05 49.05 16.65 18.9 31.5 40.49999999999999 44.1 65.7 12.6 25.2 21.15 53.99999999999999 26.1 86.39999999999999 4.949999999999999 32.4 4.05 68.85-2.25 108.89999999999999-5.85 32.85-17.549999999999997 63.9-35.099999999999994 93.15s-40.49999999999999 54.900000000000006-69.75 76.50000000000001c-28.799999999999997 21.599999999999998-63.449999999999996 39.15-103.05 51.75-39.599999999999994 13.05-85.05 19.349999999999998-135.45 19.349999999999998-51.75 0-98.1-7.199999999999999-138.14999999999998-22.05-40.05-14.85-74.25-34.199999999999996-102.15-57.599999999999994-27.9-23.849999999999998-49.95-49.95-66.6-79.19999999999999-16.65-29.250000000000004-27.450000000000003-58.50000000000001-32.4-87.30000000000001-5.85-32.4-6.749999999999999-63-2.25-92.69999999999999 4.05-29.7 12.149999999999999-57.599999999999994 23.4-83.25 11.25-26.1 25.2-49.95 41.85-71.55000000000001 16.65-21.599999999999998 35.099999999999994-40.95 54.900000000000006-58.050000000000004 17.099999999999998-15.3 32.4-29.250000000000004 46.349999999999994-42.75s25.2-25.65 34.65-36.9c11.25-12.6 21.15-24.299999999999997 29.7-35.550000000000004h220.5z m-111.6-197.10000000000002c1.3499999999999999 0 3.15-0.44999999999999996 4.949999999999999-1.7999999999999998 4.05-2.6999999999999997 9-7.199999999999999 15.75-13.95 8.1-7.199999999999999 15.75-12.6 23.849999999999998-15.75 8.1-3.15 18.45-2.25 31.5 3.15 6.749999999999999 1.7999999999999998 11.7 4.949999999999999 15.75 8.549999999999999 4.05 3.5999999999999996 7.65 7.199999999999999 11.25 10.35 3.5999999999999996 3.15 7.65 6.3 11.7 8.549999999999999 4.5 2.25 9.899999999999999 3.5999999999999996 16.2 3.5999999999999996 6.749999999999999 0 12.149999999999999-0.8999999999999999 16.65-3.15l13.499999999999998-5.3999999999999995c4.05-1.7999999999999998 8.549999999999999-2.6999999999999997 13.05-3.5999999999999996 4.5-0.44999999999999996 9.45 0 15.3 1.7999999999999998 6.749999999999999 2.6999999999999997 10.799999999999999 6.3 13.499999999999998 11.25 2.25 4.949999999999999 3.15 9.899999999999999 1.7999999999999998 15.3-0.8999999999999999 5.3999999999999995-3.15 10.35-6.749999999999999 15.75-3.5999999999999996 5.3999999999999995-8.1 9.45-13.499999999999998 13.05-12.6 8.1-22.05 15.75-28.799999999999997 24.299999999999997-6.749999999999999 8.1-13.05 17.099999999999998-19.799999999999997 26.1-3.15 4.5-6.749999999999999 9.899999999999999-10.799999999999999 15.75-4.05 5.85-7.65 11.7-10.799999999999999 17.549999999999997-4.05 7.199999999999999-8.1 13.95-13.05 20.7H405.8c-4.5-8.1-9-15.3-13.95-22.5-4.05-6.749999999999999-8.1-13.05-13.05-19.799999999999997-4.5-6.749999999999999-8.549999999999999-12.6-11.7-17.549999999999997-6.749999999999999-9.899999999999999-13.95-18.45-22.05-26.1-8.1-7.65-16.2-14.399999999999999-24.299999999999997-20.249999999999996-8.549999999999999-5.85-14.399999999999999-13.95-17.549999999999997-24.299999999999997-3.15-10.35-0.44999999999999996-18.9 9-26.1 4.5-3.15 9.899999999999999-4.5 15.75-4.05 5.85 0.44999999999999996 12.149999999999999 1.7999999999999998 18.9 4.05 6.749999999999999 1.7999999999999998 13.05 4.05 19.349999999999998 5.85s12.149999999999999 2.25 17.099999999999998 0.8999999999999999c9-1.7999999999999998 16.2-5.3999999999999995 20.7-10.35 4.5-4.949999999999999 12.6-10.799999999999999 23.849999999999998-18.45 8.549999999999999-5.3999999999999995 18-7.199999999999999 28.799999999999997-5.3999999999999995 10.35 1.7999999999999998 18.45 4.949999999999999 23.849999999999998 10.35 2.6999999999999997 3.15 5.3999999999999995 6.3 8.549999999999999 8.549999999999999s6.3 4.5 9.45 6.3c2.25 2.25 5.85 4.949999999999999 9.899999999999999 6.749999999999999z" p-id="18945"></path></svg>