<?xml version="1.0" standalone="no"?><!DOCTYPE svg PUBLIC "-//W3C//DTD SVG 1.1//EN" "http://www.w3.org/Graphics/SVG/1.1/DTD/svg11.dtd"><svg t="1589795355011" class="icon" viewBox="0 0 1024 1024" version="1.1" xmlns="http://www.w3.org/2000/svg" p-id="22021" xmlns:xlink="http://www.w3.org/1999/xlink" width="200" height="200"><defs><style type="text/css"></style></defs><path d="M665.264757 1023.641725c-18.630279 0-36.748738-8.189134-48.418253-21.803568-15.917629-18.527915-66.383166-66.587894-107.68711-66.587895-41.048033 0-92.281302 48.367072-106.97056 65.308342a64.335882 64.335882 0 0 1-48.111161 21.445295c-8.752137 0-17.043635-1.791373-24.618584-5.322937l-1.330734-0.614185-125.549658-74.367572-1.279552-0.921277c-22.82721-16.941271-31.528165-50.05608-20.216924-77.080222 0.102364-0.204728 11.567151-28.303694 11.567152-53.894737 0-77.745589-59.678313-140.955466-133.073425-140.955466H54.253011c-20.984655 0-38.130654-19.756285-43.607137-50.363173C10.287599 616.02759 0 557.987105 0 512.281501c0-45.756785 10.236417-103.797271 10.748238-106.254011 5.476483-31.016344 23.031939-50.926176 44.374869-50.363173h4.452841c73.395112 0 133.073424-63.261059 133.073425-140.955465 0-25.591043-11.464787-53.741191-11.567152-53.945919-11.311241-27.024142-2.559104-60.138951 20.370471-77.02904l1.279552-0.97246L335.293847 5.681212 336.573399 5.118209C344.097166 1.689009 352.2863 0 360.936072 0c18.425551 0 36.390463 7.830859 48.162344 20.984655 15.7129 17.401909 65.25716 62.595692 105.435097 62.595692 39.666117 0 88.954466-44.323687 104.616185-61.418504 11.669516-12.846704 29.583246-20.575199 47.804068-20.575198 8.803319 0 17.145999 1.791373 24.720948 5.271755l1.330734 0.614185 127.955216 75.288848 1.279552 0.97246c22.929575 16.890088 31.630529 50.05608 20.319288 77.080222-0.102364 0.204728-11.567151 28.303694-11.567151 53.894737 0 77.694407 59.678313 140.955466 133.073424 140.955465h4.452841c21.34293-0.511821 38.898386 19.346829 44.426051 50.363173 0.409457 2.45674 10.697056 60.497226 10.697056 106.254011 0 45.705603-10.236417 103.746089-10.748238 106.202829-5.527665 31.016344-23.031939 50.823812-44.374869 50.363173h-4.452841c-73.395112 0-133.073424 63.261059-133.073424 140.955466 0 25.591043 11.464787 53.690008 11.567151 53.945919 11.311241 26.972959 2.559104 60.138951-20.319288 77.02904l-1.279552 0.921277-130.156046 76.210127-1.330734 0.614185c-7.472585 3.378018-15.610536 5.118209-24.209127 5.118208z m-3.992202-64.950067a7.933223 7.933223 0 0 0 3.992202 1.126006h0.204729l121.557455-71.1431c-2.917379-7.267856-16.378268-42.327585-16.378268-78.820413 0-109.376118 81.379517-198.944769 183.231869-204.523617 1.535463-8.59859 9.468686-56.812116 9.468686-93.049033s-7.984405-84.450442-9.417504-93.049032c-101.954716-5.630029-183.231869-95.19868-183.231869-204.523617 0-36.595192 13.460889-71.654921 16.378268-78.820413L667.414405 65.410706h-0.511821a9.008047 9.008047 0 0 0-4.555206 1.22837c-1.996101 2.20083-19.346829 20.779927-44.221322 39.359025-36.851102 27.48478-71.757285 41.406308-103.643725 41.406307-32.193532 0-67.355626-14.22862-104.411456-42.225221-25.079222-18.937372-42.481132-37.874744-44.528415-40.126755a9.161593 9.161593 0 0 0-4.606388-1.22837h-0.409456L236.614785 135.939621c2.968561 7.319038 16.378268 42.276403 16.378267 78.769231 0 109.324936-81.379517 198.893587-183.231868 204.523617-1.535463 8.547408-9.468686 56.812116-9.468686 93.049032 0 36.185735 7.984405 84.450442 9.417503 93.049033 101.954716 5.578847 183.231869 95.19868 183.231869 204.472435 0 36.697556-13.512071 71.859649-16.378267 78.922777l117.258159 69.454091a7.779677 7.779677 0 0 0 4.196931-1.074824c2.149648-2.507922 19.705103-22.110661 44.937872-41.7134 37.567651-29.173789 73.34393-44.016594 106.202829-44.016594 33.165992 0 69.198181 15.098715 106.970561 44.835507 25.386315 19.961014 42.992952 39.973209 45.1426 42.481132z m-151.703704-259.441995c-97.757785 0-177.243565-84.194532-177.243565-187.684711s79.536962-187.68471 177.243565-187.68471c97.757785 0 177.243565 84.194532 177.243565 187.68471s-79.48578 187.68471-177.243565 187.684711z m0-311.54536c-64.489429 0-116.951067 55.532564-116.951067 123.860649 0 68.276903 52.461638 123.860649 116.951067 123.860649 64.489429 0 116.951067-55.583746 116.951067-123.860649 0-68.328085-52.461638-123.860649-116.951067-123.860649z" p-id="22022" fill="#707070"></path></svg>