<?xml version="1.0" standalone="no"?><!DOCTYPE svg PUBLIC "-//W3C//DTD SVG 1.1//EN" "http://www.w3.org/Graphics/SVG/1.1/DTD/svg11.dtd"><svg t="1589787035146" class="icon" viewBox="0 0 1024 1024" version="1.1" xmlns="http://www.w3.org/2000/svg" p-id="21268" xmlns:xlink="http://www.w3.org/1999/xlink" width="200" height="200"><defs><style type="text/css"></style></defs><path d="M930.350825 0h-161.711145c-25.587206 0-46.568716 20.981509-46.568715 46.568716s20.981509 46.568716 46.568715 46.568715h115.142429c25.587206 0 46.568716 20.981509 46.568716 46.568716V255.872064c0 25.587206 20.981509 46.568716 46.568715 46.568716S1023.488256 281.45927 1023.488256 255.872064V93.137431C1023.488256 41.451274 982.036982 0 930.350825 0zM46.568716 302.44078c25.587206 0 46.568716-20.981509 46.568715-46.568716V139.194403c0-25.587206 20.981509-46.568716 46.568716-46.568716h115.142429c25.587206 0 46.568716-20.981509 46.568715-46.568715s-20.981509-46.056972-47.080459-46.056972H93.137431C41.451274 0 0 41.451274 0 93.137431V255.872064c0 25.587206 20.981509 46.568716 46.568716 46.568716zM255.36032 931.886057H139.706147c-25.587206 0-46.568716-20.981509-46.568716-46.568716v-115.654173c0-25.075462-20.469765-46.056972-46.056971-46.056971H46.056972c-25.075462 0-46.056972 20.469765-46.056972 46.056971v161.199401c0 51.174413 41.451274 93.137431 93.137431 93.137431h162.222889c25.075462 0 46.056972-20.469765 46.056971-46.056972s-20.981509-46.056972-46.056971-46.056971zM977.431284 723.606197h-1.535232c-25.075462 0-46.056972 20.469765-46.056972 46.056971V885.317341c0 25.587206-20.981509 46.568716-46.568715 46.568716H767.616192c-25.075462 0-46.056972 20.469765-46.056972 46.056971s20.469765 46.056972 46.056972 46.056972h162.222888c51.174413 0 93.137431-41.451274 93.137432-93.137431v-160.687656c0.511744-26.098951-19.958021-46.568716-45.545228-46.568716zM46.568716 559.336332h930.350824c25.587206 0 46.568716-20.981509 46.568716-46.568716s-20.469765-46.568716-46.568716-46.568715H46.568716c-25.587206 0-46.568716 20.981509-46.568716 46.568715s20.981509 46.568716 46.568716 46.568716z" p-id="21269"></path></svg>