<?xml version="1.0" standalone="no"?><!DOCTYPE svg PUBLIC "-//W3C//DTD SVG 1.1//EN" "http://www.w3.org/Graphics/SVG/1.1/DTD/svg11.dtd"><svg t="1589787007704" class="icon" viewBox="0 0 1024 1024" version="1.1" xmlns="http://www.w3.org/2000/svg" p-id="19739" xmlns:xlink="http://www.w3.org/1999/xlink" width="200" height="200"><defs><style type="text/css"></style></defs><path d="M0 0m136.533333 0l750.933334 0q136.533333 0 136.533333 136.533333l0 750.933334q0 136.533333-136.533333 136.533333l-750.933334 0q-136.533333 0-136.533333-136.533333l0-750.933334q0-136.533333 136.533333-136.533333Z" fill="#78778D" p-id="19740"></path><path d="M170.666667 273.066667h273.066666v68.266666H170.666667zM580.266667 273.066667h273.066666v68.266666h-273.066666z" fill="#FFFFFF" p-id="19741"></path><path d="M273.066667 170.666667h68.266666v273.066666H273.066667zM253.064533 614.4l193.092267 193.092267-48.264533 48.264533L204.8 662.664533z" fill="#FFFFFF" p-id="19742"></path><path d="M397.892267 614.4l48.264533 48.264533-193.092267 193.092267L204.8 807.492267zM700.962133 584.3968l48.264534 48.298667-48.264534 48.264533-48.298666-48.264533zM735.095467 755.063467l48.264533 48.298666-48.264533 48.264534-48.298667-48.264534zM580.266667 682.666667h273.066666v68.266666h-273.066666z" fill="#FFFFFF" p-id="19743"></path></svg>