<?xml version="1.0" standalone="no"?><!DOCTYPE svg PUBLIC "-//W3C//DTD SVG 1.1//EN" "http://www.w3.org/Graphics/SVG/1.1/DTD/svg11.dtd"><svg t="1589786074437" class="icon" viewBox="0 0 1024 1024" version="1.1" xmlns="http://www.w3.org/2000/svg" p-id="12814" xmlns:xlink="http://www.w3.org/1999/xlink" width="200" height="200"><defs><style type="text/css"></style></defs><path d="M512 62.464c-247.808 0-449.536 200.704-449.536 449.536s201.728 449.536 449.536 449.536 449.536-201.728 449.536-449.536-200.704-449.536-449.536-449.536zM230.4 542.72s6.144-39.424 55.296 0c14.336 11.776 29.696 19.456 39.424 26.112l-60.416 25.6C236.032 561.664 230.4 542.72 230.4 542.72z m498.688 18.432c-28.16 8.704-314.368 91.136-314.368 91.136s-79.36 26.624-137.728-45.056l65.024-27.136c11.264 3.584 22.016 3.584 35.84-1.024l73.728-18.432-110.592-163.84s-22.528-35.84 55.296-18.432c0 0 140.8 108.032 166.4 127.488 0 0 12.8 7.168 36.864 0l111.104-36.352s75.264-23.04 92.16 18.432c18.432 43.008-45.568 64.512-73.728 73.216z" p-id="12815" fill="#1296db"></path></svg>