<?xml version="1.0" standalone="no"?><!DOCTYPE svg PUBLIC "-//W3C//DTD SVG 1.1//EN" "http://www.w3.org/Graphics/SVG/1.1/DTD/svg11.dtd"><svg t="1589786183614" class="icon" viewBox="0 0 1024 1024" version="1.1" xmlns="http://www.w3.org/2000/svg" p-id="17114" xmlns:xlink="http://www.w3.org/1999/xlink" width="200" height="200"><defs><style type="text/css"></style></defs><path d="M509.673 4.655C228.073 4.655 0 232.727 0 514.327S228.073 1024 509.673 1024s509.673-228.073 509.673-509.673c0.004-281.6-228.073-509.672-509.673-509.672z m0 949.527c-242.037 0-439.855-197.818-439.855-439.855 0-242.036 197.818-439.854 439.855-439.854 242.036 0 439.855 197.818 439.855 439.855 0 242.036-197.818 439.855-439.855 439.855z" fill="#00E4DD" p-id="17115"></path><path d="M660.945 560.873H544.581v-65.164l128-221.09c9.31-16.291 4.655-37.237-13.964-48.873-16.29-9.31-37.236-4.655-48.872 13.963l-102.4 176.873-102.4-176.873c-9.31-16.29-30.255-23.272-48.873-13.963-16.29 9.309-23.273 30.254-13.964 48.872l128 221.091v65.164H353.744c-18.618 0-34.909 16.29-34.909 34.91s16.291 34.908 34.91 34.908h116.363v139.636c0 18.618 16.291 34.91 34.91 34.91s34.909-16.292 34.909-34.91V630.691H656.29c18.618 0 34.909-16.29 34.909-34.909s-11.637-34.909-30.255-34.909z" fill="#00E4DD" p-id="17116"></path><path d="M660.945 523.636H356.073c-18.618 0-34.91-16.29-34.91-34.91s16.292-34.908 34.91-34.908h304.873c18.618 0 34.91 16.29 34.91 34.909s-16.292 34.909-34.91 34.909z" fill="#00E4DD" p-id="17117"></path></svg>