<?xml version="1.0" standalone="no"?><!DOCTYPE svg PUBLIC "-//W3C//DTD SVG 1.1//EN" "http://www.w3.org/Graphics/SVG/1.1/DTD/svg11.dtd"><svg t="1589787024282" class="icon" viewBox="0 0 1305 1024" version="1.1" xmlns="http://www.w3.org/2000/svg" p-id="20539" xmlns:xlink="http://www.w3.org/1999/xlink" width="254.8828125" height="200"><defs><style type="text/css"></style></defs><path d="M126.057247 701.787261c-19.410406 0-34.703453 15.293047-34.703453 34.703453L91.353793 800.015679c0 19.410406 15.293047 34.703453 34.703453 34.703453 19.410406 0 34.703453-15.293047 34.703453-34.703453l0-63.524965C160.172506 717.668502 144.879458 701.787261 126.057247 701.787261zM1283.623276 281.816659 657.784732 3.012646c-9.411106-4.117359-19.9986-4.117359-29.409706 0.588194L19.594111 295.933318c-12.352077 5.881941-19.9986 18.234018-19.410406 32.350677 0.588194 13.528465 8.822912 25.880541 21.174988 31.174288L91.353793 388.279795c0 0.588194 0 1.176388 0 1.176388l0 249.394307c0 19.410406 15.293047 34.703453 34.703453 34.703453 19.410406 0 34.703453-15.293047 34.703453-34.703453l0-221.749183 66.465936 27.645124 0 358.210219c0 1.176388 0 2.352776 0 2.940971 0 1.176388 0 1.764582 0 3.529165 0 35.291647 15.881241 67.642324 39.9972 93.522865 72.347877 76.465236 217.04363 119.991601 385.855343 120.579795 112.345077 0 214.10266-20.586794 290.567896-55.878441 38.232618-17.645824 70.583294-38.820812 94.699253-65.289547 24.115959-25.880541 39.9972-58.231218 39.9972-93.522865 0-1.176388 0-2.352776 0-3.529165 0-1.176388 0-1.764582 0-2.940971L1078.343528 436.511712l205.867942-91.170089c12.352077-5.293747 20.586794-18.234018 20.586794-31.762483C1304.21007 300.050676 1296.563546 287.6986 1283.623276 281.816659zM986.585245 856.482314c-45.879141 52.349277-179.399207 99.404806-334.682455 98.228418-103.522165 0-197.04503-19.410406-261.746384-49.408306-32.350677-14.704853-57.05483-32.350677-72.936071-48.820112-15.293047-16.469435-21.174988-31.174288-21.763182-45.290947 0-1.176388 0.588194-2.940971 0.588194-5.293747 0-3.529165 0-6.470135-0.588194-9.9993l0-82.935371c19.9986 16.469435 44.114559 31.174288 71.171489 43.526365 74.112459 34.115259 174.693654 54.113859 285.274148 54.702053 22.351377 0 44.114559-0.588194 65.289547-2.352776 11.175688-0.588194 19.9986-10.587494 19.410406-22.351377-0.588194-11.763882-10.587494-19.9986-22.351377-19.410406-19.9986 1.764582-41.173588 2.352776-62.348577 2.352776-105.286748 0-200.574195-19.9986-267.628325-50.584694-42.938171-19.410406-72.347877-42.938171-88.229118-66.465936L296.045347 474.156136l344.681755 143.519365c1.176388 0.588194 2.352776 0.588194 3.529165 1.176388 1.176388 0.588194 2.352776 0.588194 3.529165 1.176388 1.176388 0 1.764582 0 2.940971 0 1.176388 0 2.352776 0.588194 4.117359 0.588194 0 0 0 0 0 0 1.764582 0 3.529165 0 4.705553-0.588194 0.588194 0 1.176388 0 1.764582 0 2.352776-0.588194 4.705553-1.176388 7.058329-2.352776l340.564396-150.577695 0 185.869342c-6.470135 9.411106-15.293047 18.822212-26.468735 28.821512-27.645124 22.939571-68.818712 44.114559-118.815212 59.407606-11.175688 3.529165-17.057629 15.293047-14.116659 25.880541 2.940971 8.822912 11.175688 14.704853 19.9986 14.704853 1.764582 0 4.117359-0.588194 5.881941-1.176388 54.113859-16.469435 99.993-38.820812 132.931871-67.05413l0 82.935371c-0.588194 2.940971-0.588194 6.470135-0.588194 9.9993 0 2.352776 0.588194 4.117359 0.588194 4.705553C1007.760233 825.308026 1001.878292 839.424685 986.585245 856.482314zM1028.935222 381.809659C1028.935222 381.809659 1028.935222 381.809659 1028.935222 381.809659l-375.267849 165.870742L274.870359 390.044377c0 0 0 0 0 0l-155.283248-64.701353 524.669156-252.335278 539.962203 240.571395L1028.935222 381.809659z" p-id="20540"></path></svg>