<?xml version="1.0" standalone="no"?><!DOCTYPE svg PUBLIC "-//W3C//DTD SVG 1.1//EN" "http://www.w3.org/Graphics/SVG/1.1/DTD/svg11.dtd"><svg t="1589783653362" class="icon" viewBox="0 0 1024 1024" version="1.1" xmlns="http://www.w3.org/2000/svg" p-id="4483" xmlns:xlink="http://www.w3.org/1999/xlink" width="200" height="200"><defs><style type="text/css"></style></defs><path d="M909.952 929.024a397.76 397.76 0 0 0-269.056-376.064l-9.792-3.392 8.832-5.184a255.104 255.104 0 0 0 126.208-219.264c0-140.096-113.984-254.08-254.144-254.08S257.856 185.024 257.856 325.12c0 89.728 48.32 173.76 126.144 219.264l8.832 5.184-9.728 3.392a397.696 397.696 0 0 0-269.056 376.064l0.064 0.896-0.064 0.768c0 12.352 9.6 22.4 21.504 22.4H888.32a22.016 22.016 0 0 0 21.568-22.4l-0.128-0.768c0-0.256 0.192-0.576 0.192-0.896zM305.984 325.12c0-115.456 92.416-209.408 206.016-209.408s205.952 93.952 205.952 209.408c0 104.256-76.544 193.408-178.176 207.296l-0.512 0.128-5.248-0.384a315.968 315.968 0 0 0-44.032 0l-5.248 0.384-0.512-0.128c-101.568-13.888-178.24-103.04-178.24-207.296zM512 579.2a350.144 350.144 0 0 1 349.12 329.088H162.752A350.336 350.336 0 0 1 512 579.2z m0 0" p-id="4484" fill="#00BC5B"></path></svg>