<?xml version="1.0" standalone="no"?><!DOCTYPE svg PUBLIC "-//W3C//DTD SVG 1.1//EN" "http://www.w3.org/Graphics/SVG/1.1/DTD/svg11.dtd"><svg t="1589785762758" class="icon" viewBox="0 0 1024 1024" version="1.1" xmlns="http://www.w3.org/2000/svg" p-id="1202" xmlns:xlink="http://www.w3.org/1999/xlink" width="200" height="200"><defs><style type="text/css"></style></defs><path d="M482.051 541.027c-28.502 0-28.702 0.19-28.717 28.63 0 27.965 0.753 28.687 29.122 28.651 27.995 0 27.995 0 27.98-29.05-0.03-28.272-0.03-28.272-28.385-28.23z m-82.701 0c-29.552-0.113-29.552-0.113-29.69 29.465-0.138 26.695 0.855 27.668 27.719 27.714 29.209 0.102 29.362-0.041 29.465-27.755 0.133-29.332 0.133-29.332-27.494-29.424z m-0.942-17.561c28.175 0.02 28.282-0.051 28.328-26.966 0.067-29.88 0.067-29.88-29.51-29.931-26.824-0.051-27.3 0.394-27.418 25.896-0.117 31.001-0.117 31.001 28.6 31.001z" fill="#d81e06" p-id="1203"></path><path d="M512.637 1.28C230.225 1.28 1.285 230.215 1.285 512.637 1.285 795.055 230.23 1024 512.637 1024c282.413 0 511.358-228.945 511.358-511.363 0-282.422-228.945-511.357-511.358-511.357z m112.3 360.424c-3.978 103.723-7.537 207.462-11.443 311.155-2.314 60.85-5.279 64.97-7.276 125.774-0.512 16.476-8.985 22.082-23.53 22.134-31.155 0.102-62.325 0.015-93.48 0.015v0.174c-28.373 0-167.849-0.497-196.228 0.205-16.036 0.379-23.716-4.3-24.57-22.041-2.878-61.5-7.624-66.241-11.065-127.72-4.869-87.699-9.262-175.423-13.68-263.131-1.321-26.92 2.104-30.156 28.907-34.861 70.751-12.385 252.537-25.313 323.325-37.831 22.886-4.024 29.946 3.041 29.04 26.127z m156.867-125.509a127808.338 127808.338 0 0 1-13.301 433.74c-1.997 60.154-5.355 63.594-7.096 123.758-0.492 17.848-7.419 24.744-25.067 24.258-26.29-0.727-52.648-0.794-78.882 0.276-18.918 0.768-24.074-7.434-22.686-25.056 2.621-32.41 3.737-8.284 5.494-40.765-0.17-0.005-0.328-0.005-0.533-0.025 6.144-136.204 12.375-272.388 18.258-408.607 1.587-36.32-12.017-47.303-47.892-40.38-25.794 4.97-217.62 27.57-243.209 33.458-13.987 3.205-19.45-2.105-20.715-14.966-0.333-3.45-0.855-6.87-1.31-10.296-3.963-32.67-3.165-34.047 29.69-41.466 68.063-15.42 302.098-48.976 370.217-64.193 27.049-6.036 37.841 2.304 37.032 30.264z" fill="#d81e06" p-id="1204"></path><path d="M481.478 523.62c28.804 0.107 28.804 0.107 28.845-28.298 0.026-28.83 0.026-28.83-26.214-28.907-30.253-0.123-30.719 0.313-30.693 29.388 0.04 27.156 0.67 27.75 28.062 27.817z" fill="#d81e06" p-id="1205"></path></svg>