<?xml version="1.0" standalone="no"?><!DOCTYPE svg PUBLIC "-//W3C//DTD SVG 1.1//EN" "http://www.w3.org/Graphics/SVG/1.1/DTD/svg11.dtd"><svg t="1589796956371" class="icon" viewBox="0 0 1024 1024" version="1.1" xmlns="http://www.w3.org/2000/svg" p-id="23606" xmlns:xlink="http://www.w3.org/1999/xlink" width="200" height="200"><defs><style type="text/css"></style></defs><path d="M907.3 1024H122.9l-3-0.4c-10-1.3-44.5-7.3-65.7-28.5-17.7-17.7-26.9-46-29.2-54.2l-1.8-6.3V471.3c0.4-30.6 5.3-41.3 7-45.3 5.3-11.9 15-23.4 32.4-38.6 6.9-6.1 13.5-11.3 16.8-13.8L441.3 29.3C446.7 24.1 474 0 510.5 0c36.9 0 63.2 22.3 69.4 28.2l379.6 346.4 1.5 1.8c9.9 11.1 22.8 26.8 28.4 38.9s9.1 32.4 10.9 47.2l0.4 3v463.8l-0.4 3.2c-1.3 9.3-7.1 41.3-27.5 61.7-18.8 18.8-49 26.5-61.1 29l-4.4 0.8z m-777.6-91.9h767.5c3.5-0.9 7.2-2.3 9.8-3.3 0.7-2.2 1.4-4.8 1.9-6.8V471.6c-0.9-6.7-2.3-14-3.3-18-2.4-3.3-7.1-9.2-11.6-14.3L517.5 95.6c-1.8-1.5-4.8-3.1-6.5-3.6-2.3 0.8-5.9 3.5-6.2 3.7l-0.2 0.2-365.4 347.6-2.1 1.5c-7.7 5.8-16.5 13.4-21.6 18.4-0.2 3-0.4 6.3-0.4 8.9v448.2c1.2 3.2 2.6 6.4 3.8 8.6 2.9 1.1 7.4 2.4 10.8 3zM517.1 95.3c0.1 0.1 0.2 0.1 0.2 0.2l-0.2-0.2z" fill="#515151" p-id="23607"></path><path d="M676.9 564.3V626H553.2v61.7h123.6v61.7H553.2v102.9h-82.4V749.5H347.1v-61.7h123.6V626H347.1v-61.7H437l-89.9-164.6h82.4L512 550.5l82.4-150.9h82.4l-89.9 164.6 90 0.1z" fill="#515151" p-id="23608"></path></svg>