<?xml version="1.0" standalone="no"?><!DOCTYPE svg PUBLIC "-//W3C//DTD SVG 1.1//EN" "http://www.w3.org/Graphics/SVG/1.1/DTD/svg11.dtd"><svg t="1589706936259" class="icon" viewBox="0 0 1024 1024" version="1.1" xmlns="http://www.w3.org/2000/svg" p-id="3123" xmlns:xlink="http://www.w3.org/1999/xlink" width="200" height="200"><defs><style type="text/css"></style></defs><path d="M916.210526 1024 107.789474 1024C78.012632 1024 53.894737 999.855158 53.894737 970.105263L53.894737 485.052632C53.894737 455.275789 78.012632 431.157895 107.789474 431.157895L188.631579 431.157895 188.631579 323.368421C188.631579 144.761263 333.419789 0 512 0 690.580211 0 835.368421 144.761263 835.368421 323.368421L835.368421 431.157895 916.210526 431.157895C945.987368 431.157895 970.105263 455.275789 970.105263 485.052632L970.105263 970.105263C970.105263 999.855158 945.987368 1024 916.210526 1024ZM781.473684 323.368421C781.473684 174.538105 660.830316 53.894737 512 53.894737 363.169684 53.894737 242.526316 174.538105 242.526316 323.368421L242.526316 431.157895 781.473684 431.157895 781.473684 323.368421ZM916.210526 485.052632 835.368421 485.052632 188.631579 485.052632 107.789474 485.052632 107.789474 970.105263 916.210526 970.105263 916.210526 485.052632ZM512 592.842105C526.874947 592.842105 538.947368 604.914526 538.947368 619.789474L538.947368 835.368421C538.947368 850.243368 526.874947 862.315789 512 862.315789 497.125053 862.315789 485.052632 850.243368 485.052632 835.368421L485.052632 619.789474C485.052632 604.914526 497.125053 592.842105 512 592.842105Z" p-id="3124" fill="#00BC5B"></path></svg>