<?xml version="1.0" standalone="no"?><!DOCTYPE svg PUBLIC "-//W3C//DTD SVG 1.1//EN" "http://www.w3.org/Graphics/SVG/1.1/DTD/svg11.dtd"><svg t="1589785884013" class="icon" viewBox="0 0 1024 1024" version="1.1" xmlns="http://www.w3.org/2000/svg" p-id="5578" xmlns:xlink="http://www.w3.org/1999/xlink" width="200" height="200"><defs><style type="text/css"></style></defs><path d="M278.528 443.904v299.52c0 12.288 21.504 29.184 33.792 29.184h400.384c12.288 0 29.696-16.896 29.696-29.184V443.392L510.464 263.168 278.528 443.904z m380.416 102.4v60.416c0 7.168-5.632 12.8-12.8 12.8s-12.8-5.632-12.8-12.8v-47.616h-56.832v47.616c0 7.168-5.632 12.8-12.8 12.8s-12.8-5.632-12.8-12.8v-47.616H481.28c-7.168 0-12.8-5.632-12.8-12.8 0-21.504-17.408-38.4-38.4-38.4s-38.4 17.408-38.4 38.4c0 21.504 17.408 38.4 38.4 38.4 3.584 0 6.656-0.512 10.24-1.536 1.024-0.512 2.048-0.512 3.584-0.512 5.632 0 10.752 4.096 12.288 9.728 1.024 3.072 0.512 6.656-1.536 9.728-1.536 3.072-4.608 5.12-7.68 6.144-5.632 1.536-11.264 2.048-16.896 2.048-35.328 0-64.512-28.672-64.512-64.512C365.568 510.464 394.24 481.28 430.08 481.28c29.696 0 55.808 20.48 62.464 49.152l0.512 2.048h153.088c6.656 0.512 12.8 6.656 12.8 13.824z" fill="#ECB634" p-id="5579"></path><path d="M512 2.56C230.4 2.56 2.56 230.4 2.56 512S230.4 1021.44 512 1021.44s509.44-227.84 509.44-509.44S793.6 2.56 512 2.56z m339.968 505.856c-6.656 7.168-18.944 3.072-23.04 0l-56.32-44.032v271.872c0 34.304-28.672 61.952-63.488 61.952H311.296c-34.816 0-63.488-27.648-63.488-61.952l-4.096-269.312-49.152 38.4c-9.216 7.168-18.432 2.56-21.504-0.512-3.584-3.072-8.192-15.36 1.024-22.528L497.152 230.4c7.68-6.144 18.432-6.144 26.112 0l323.584 251.904c9.216 7.168 11.264 18.944 5.12 26.112z" fill="#ECB634" p-id="5580"></path></svg>