<?xml version="1.0" standalone="no"?><!DOCTYPE svg PUBLIC "-//W3C//DTD SVG 1.1//EN" "http://www.w3.org/Graphics/SVG/1.1/DTD/svg11.dtd"><svg t="1589786052010" class="icon" viewBox="0 0 1024 1024" version="1.1" xmlns="http://www.w3.org/2000/svg" p-id="12524" xmlns:xlink="http://www.w3.org/1999/xlink" width="200" height="200"><defs><style type="text/css"></style></defs><path d="M512 512m-512 0a512 512 0 1 0 1024 0 512 512 0 1 0-1024 0Z" fill="#20A9C9" p-id="12525"></path><path d="M712.533333 527.644444L512 364.088889 311.466667 527.644444l-29.866667-35.555555L497.777778 315.733333c8.533333-7.111111 21.333333-7.111111 29.866666 0l216.177778 176.355556-31.288889 35.555555z" fill="#FFFFFF" p-id="12526"></path><path d="M672.711111 712.533333H351.288889c-8.533333 0-17.066667-7.111111-17.066667-17.066666V469.333333c0-8.533333 7.111111-17.066667 17.066667-17.066666 8.533333 0 17.066667 7.111111 17.066667 17.066666v211.911111h290.133333V469.333333c0-8.533333 7.111111-17.066667 17.066667-17.066666 8.533333 0 17.066667 7.111111 17.066666 17.066666v227.555556c-2.844444 8.533333-9.955556 15.644444-19.911111 15.644444zM654.222222 345.6h-55.466666c-4.266667 0-7.111111 2.844444-7.111112 7.111111v34.133333c0 1.422222 1.422222 4.266667 2.844445 5.688889l51.2 42.666667c1.422222 1.422222 2.844444 1.422222 4.266667 1.422222h4.266666c4.266667 0 7.111111-2.844444 7.111111-7.111111v-75.377778c-1.422222-5.688889-4.266667-8.533333-7.111111-8.533333z" fill="#FFFFFF" p-id="12527"></path><path d="M457.955556 601.6c0 5.688889-1.422222 11.377778-4.266667 15.644444-2.844444 2.844444-5.688889 5.688889-9.955556 5.688889-2.844444 0-4.266667 1.422222-7.111111 1.422223-5.688889 0-9.955556-1.422222-12.8-4.266667-2.844444-2.844444-5.688889-5.688889-7.111111-8.533333-1.422222-4.266667-2.844444-8.533333-2.844444-12.8l12.8-1.422223c0 5.688889 1.422222 8.533333 4.266666 11.377778 1.422222 1.422222 2.844444 2.844444 5.688889 2.844445s5.688889-1.422222 7.111111-4.266667c1.422222-1.422222 1.422222-2.844444 1.422223-5.688889 0-4.266667-1.422222-7.111111-5.688889-11.377778-2.844444-2.844444-7.111111-5.688889-11.377778-11.377778-4.266667-4.266667-7.111111-8.533333-9.955556-11.377777-1.422222-4.266667-2.844444-8.533333-2.844444-12.8 0-8.533333 2.844444-14.222222 8.533333-18.488889 2.844444-2.844444 7.111111-4.266667 12.8-4.266667 4.266667 0 8.533333 1.422222 12.8 2.844445 2.844444 1.422222 4.266667 4.266667 7.111111 7.111111 1.422222 2.844444 2.844444 7.111111 2.844445 9.955555l-12.8 2.844445c0-4.266667-1.422222-7.111111-2.844445-8.533334-1.422222-1.422222-2.844444-2.844444-5.688889-2.844444s-4.266667 1.422222-5.688888 2.844444c-1.422222 1.422222-1.422222 4.266667-1.422223 7.111111 0 4.266667 1.422222 8.533333 5.688889 12.8l5.688889 5.688889c2.844444 2.844444 5.688889 4.266667 5.688889 5.688889 2.844444 2.844444 5.688889 7.111111 7.111111 9.955556 1.422222 1.422222 1.422222 2.844444 1.422222 4.266666 1.422222 4.266667 1.422222 7.111111 1.422223 9.955556zM483.555556 603.022222l-2.844445 21.333334h-14.222222l15.644444-89.6h18.488889l15.644445 89.6h-14.222223l-4.266666-21.333334h-14.222222z m7.111111-48.355555l-5.688889 35.555555h9.955555l-4.266666-35.555555zM563.2 624.355556H526.222222v-89.6h14.222222V611.555556h22.755556v12.8zM573.155556 624.355556v-89.6H611.555556v14.222222h-25.6v24.177778h18.488888v14.222222h-18.488888V611.555556H611.555556v14.222222h-38.4z" fill="#FFFFFF" p-id="12528"></path></svg>