<?xml version="1.0" standalone="no"?><!DOCTYPE svg PUBLIC "-//W3C//DTD SVG 1.1//EN" "http://www.w3.org/Graphics/SVG/1.1/DTD/svg11.dtd"><svg t="1589797038317" class="icon" viewBox="0 0 1024 1024" version="1.1" xmlns="http://www.w3.org/2000/svg" p-id="25349" xmlns:xlink="http://www.w3.org/1999/xlink" width="200" height="200"><defs><style type="text/css"></style></defs><path d="M512 480.548571C245.76 480.548571 36.571429 375.222857 36.571429 240.64S245.76 0 512 0 987.428571 105.325714 987.428571 240.64s-209.188571 239.908571-475.428571 239.908571zM512 73.142857C275.017143 73.142857 109.714286 160.914286 109.714286 240.64s165.302857 166.765714 402.285714 166.765714S914.285714 319.634286 914.285714 240.64 748.982857 73.142857 512 73.142857z" p-id="25350" fill="#515151"></path><path d="M512 752.64C245.76 752.64 36.571429 646.582857 36.571429 512a36.571429 36.571429 0 0 1 73.142857 0c0 78.994286 165.302857 167.497143 402.285714 167.497143S914.285714 590.994286 914.285714 512a36.571429 36.571429 0 0 1 73.142857 0c0 134.582857-209.188571 240.64-475.428571 240.64z" p-id="25351" fill="#515151"></path><path d="M512 1024C245.76 1024 36.571429 918.674286 36.571429 783.36a36.571429 36.571429 0 0 1 73.142857 0C109.714286 863.085714 275.017143 950.857143 512 950.857143s402.285714-87.771429 402.285714-167.497143a36.571429 36.571429 0 0 1 73.142857 0C987.428571 918.674286 778.24 1024 512 1024z" p-id="25352" fill="#515151"></path><path d="M950.857143 833.828571a36.571429 36.571429 0 0 1-36.571429-36.571428V253.805714a36.571429 36.571429 0 1 1 73.142857 0v543.451429a36.571429 36.571429 0 0 1-36.571428 36.571428zM73.142857 833.828571a36.571429 36.571429 0 0 1-36.571428-36.571428V253.805714a36.571429 36.571429 0 0 1 73.142857 0v543.451429a36.571429 36.571429 0 0 1-36.571429 36.571428z" p-id="25353" fill="#515151"></path></svg>