<?xml version="1.0" standalone="no"?><!DOCTYPE svg PUBLIC "-//W3C//DTD SVG 1.1//EN" "http://www.w3.org/Graphics/SVG/1.1/DTD/svg11.dtd"><svg t="1589785824275" class="icon" viewBox="0 0 1059 1024" version="1.1" xmlns="http://www.w3.org/2000/svg" p-id="3369" xmlns:xlink="http://www.w3.org/1999/xlink" width="206.8359375" height="200"><defs><style type="text/css"></style></defs><path d="M531.35887246 17.04347762C248.91931989 17.04347762 19.94718663 238.64989582 19.94718663 512.01338141c0 273.34402162 228.97213213 494.95043982 511.41046955 494.95043982 282.41035833 0 511.39222187-221.60641821 511.39222187-494.95043982C1042.74987805 238.64989582 813.76923079 17.04347762 531.35887246 17.04347762zM211.73189063 476.4694016c-12.08925981-11.79365831-14.96863971-27.95930169-6.43390009-36.11450368l275.62489856-263.78379947c1.48287488-2.14828259 3.2029605-4.20046393 5.1979685-6.17722424 2.26141411-2.20545707 4.68583538-4.12504291 7.22338702-5.70280278l0.97925689-0.9403301c3.67738311-3.51680967 8.85710393-4.97048803 14.5221962-4.53377592 5.69307022-0.40873301 10.88130731 1.01696739 14.54044274 4.53377592l0.99750342 0.9403301c2.49984227 1.57775872 4.94251008 3.49734571 7.2039242 5.70280278 1.98649287 1.97676032 3.7163099 4.03015907 5.18945223 6.17722424l275.66260907 263.78379947c8.49581283 8.15398571 5.62616434 24.31962909-6.46309433 36.11450368-12.06979584 11.84110023-28.75852117 14.80684885-37.23487118 6.67111083L508.84448142 234.4871424 249.00447232 483.14051243C240.48919552 491.27625045 223.80168761 488.31050069 211.73189063 476.4694016zM295.53437582 487.73146283l217.35851236-202.56139492L722.17283584 487.73146283l0 109.32033422L679.74851243 597.05179705l-101.6602351 80.5715456-11.99315854 0L566.09511765 546.70096725l-116.08754631 0 0 178.99232598L295.53437582 725.69329437 295.53437582 487.73146283zM870.67682247 727.44135794L870.67682247 727.44135794l-80.74306674-0.32358059c0 0-156.41102905 127.27297024-178.96313059 129.59155883-22.49492707 2.31858859-249.12900779 1.44516437-249.12900779 1.44516437s-39.77242283-0.0766373-40.93171712-34.08056889c-1.21646763-15.96614315 6.61515378-35.86634411 19.62527858-36.6266368l158.48267434 0.24694329c0 0 9.76945493 1.6726437 17.27749576 12.0892598 7.36571392 10.13074603 25.25144405 14.80684885 36.46606336 14.80684886s32.57823118-3.64940402 44.27700451-16.00385366c14.38838443-14.82631282 73.41627961-63.33297664 80.03021711-74.3566097 6.59568981-11.04309703-0.62769721-18.96960341-15.90896868-15.22531442-15.32993081 3.7819995-78.35757341 95.60709006-110.89809408 81.17977884-28.80596309-12.77291406-16.0902235-35.18268871-5.59818638-46.20632291 10.50176853-11.06256099 99.26622663-107.79001742 129.49667384-122.33167758 7.03240192-2.69934251 16.09873863-5.49356999 26.61023858-5.22716274 10.51149995 0.32358059 169.90652643 0 169.90652644 0L870.67682247 727.44135794 870.67682247 727.44135794 870.67682247 727.44135794z" p-id="3370" fill="#A782B9"></path></svg>