<?xml version="1.0" standalone="no"?><!DOCTYPE svg PUBLIC "-//W3C//DTD SVG 1.1//EN" "http://www.w3.org/Graphics/SVG/1.1/DTD/svg11.dtd"><svg t="1589786011359" class="icon" viewBox="0 0 1024 1024" version="1.1" xmlns="http://www.w3.org/2000/svg" p-id="11016" xmlns:xlink="http://www.w3.org/1999/xlink" width="200" height="200"><defs><style type="text/css"></style></defs><path d="M510.5 511.1m-445 0a445 445 0 1 0 890 0 445 445 0 1 0-890 0Z" fill="#FFB354" p-id="11017"></path><path d="M260.6 728.4h6.1l1.6-315c-1.1-96.2 60.8-120.1 128.2-158.1h23.3v473.1h15.1l1.6-315c-1.1-96.2 60.8-120.1 128.2-158.1H588v130.1h168.9c5.4 0 9.7 4.4 9.7 9.7V761c0 3.3-2.7 5.9-5.9 5.9H260.6c-3.3 0-5.9-2.7-5.9-5.9v-26.7c-0.1-3.3 2.6-5.9 5.9-5.9z m421.9-255.7v22.7h22.7v-22.7h-22.7z m-31.2 0v22.7H674v-22.7h-22.7z m31.2-31.2v22.7h22.7v-22.7h-22.7z m-31.2 0v22.7H674v-22.7h-22.7z m-158.7-55.3c-5.1 0-9.3 4.3-9.3 9.5v316.8H502V395.7c-0.1-5.3-4.3-9.5-9.4-9.5z m37.3-39.2c-5.1 0-9.3 4.3-9.3 9.5v356h18.7v-356c-0.1-5.3-4.3-9.5-9.4-9.5z m-205.4 39.2c-5.1 0-9.3 4.3-9.3 9.5v316.8h18.7V395.7c-0.1-5.3-4.3-9.5-9.4-9.5z m37.3-39.2c-5.1 0-9.3 4.3-9.3 9.5v356h18.7v-356c-0.1-5.3-4.3-9.5-9.4-9.5z" fill="#FFFFFF" p-id="11018"></path></svg>