<?xml version="1.0" standalone="no"?><!DOCTYPE svg PUBLIC "-//W3C//DTD SVG 1.1//EN" "http://www.w3.org/Graphics/SVG/1.1/DTD/svg11.dtd"><svg t="1589797005116" class="icon" viewBox="0 0 1024 1024" version="1.1" xmlns="http://www.w3.org/2000/svg" p-id="24564" xmlns:xlink="http://www.w3.org/1999/xlink" width="200" height="200"><defs><style type="text/css"></style></defs><path d="M947.101696 351.652864L875.33056 77.952c-14.818304-56.510464-72.336384-89.555968-128.493568-74.185728L473.919488 78.461952c-41.457664 11.346944-86.923264 46.60224-108.429312 83.851264L86.197248 646.064128c-29.014016 50.2528-12.041216 114.64704 38.207488 143.657984l381.485056 220.251136c50.24256 29.006848 114.481152 11.547648 143.514624-38.740992l279.293952-483.751936c21.438464-37.132288 29.244416-94.48448 18.403328-135.827456z m-64.007168 109.498368L603.800576 944.903168c-14.538752 25.181184-46.606336 33.886208-71.581696 19.46624L150.733824 744.118272c-24.994816-14.431232-33.442816-46.592-18.932736-71.725056L411.09504 188.642304c14.538752-25.182208 48.58368-51.687424 76.726272-59.389952l272.917504-74.69568c27.836416-7.61856 56.255488 8.527872 63.655936 36.752384l71.771136 273.700864c7.319552 27.915264 1.439744 71.008256-13.07136 96.141312z" fill="" p-id="24565"></path><path d="M753.215488 141.090816c-52.261888-30.173184-119.088128-12.26752-149.262336 39.994368-30.173184 52.261888-12.266496 119.088128 39.995392 149.261312 52.260864 30.173184 119.088128 12.26752 149.261312-39.994368 30.173184-52.261888 12.266496-119.088128-39.994368-149.261312z m-5.609472 122.932224c-15.63136 27.075584-50.2528 36.352-77.32736 20.72064-27.075584-15.63136-36.352-50.2528-20.72064-77.328384 15.63136-27.075584 50.2528-36.352 77.328384-20.72064 27.07456 15.632384 36.352 50.2528 20.719616 77.328384zM408.99072 532.922368c37.228544 21.49376 84.832256 8.738816 106.326016-28.489728 21.49376-37.228544 8.738816-84.832256-28.489728-106.326016-37.228544-21.49376-84.832256-8.737792-106.326016 28.489728-21.49376 37.228544-8.738816 84.832256 28.489728 106.326016z m17.114112-79.996928c6.95296-12.04224 22.350848-16.167936 34.393088-9.214976 12.04224 6.95296 16.167936 22.350848 9.216 34.393088-6.95296 12.04224-22.350848 16.167936-34.393088 9.214976-12.04224-6.95296-16.16896-22.350848-9.216-34.393088zM544.11264 663.759872c-37.228544-21.49376-84.832256-8.738816-106.326016 28.489728-21.49376 37.228544-8.738816 84.832256 28.489728 106.326016s84.832256 8.738816 106.326016-28.489728c21.494784-37.228544 8.738816-84.832256-28.489728-106.326016z m-17.113088 79.996928c-6.95296 12.04224-22.350848 16.167936-34.393088 9.216-12.04224-6.95296-16.167936-22.350848-9.216-34.393088 6.95296-12.04224 22.350848-16.167936 34.393088-9.216 12.04224 6.951936 16.167936 22.350848 9.216 34.393088zM672.996352 529.206272L284.823552 633.217024c-13.69088 3.668992-21.767168 17.923072-18.27328 30.961664 3.59936 13.431808 17.337344 21.420032 31.305728 17.677312L686.0288 577.845248c13.69088-3.668992 21.766144-17.923072 18.27328-30.961664-3.598336-13.431808-17.33632-21.421056-31.305728-17.677312z" fill="" p-id="24566"></path></svg>